<svg width="320" height="64" viewBox="0 0 320 64" fill="none" xmlns="http://www.w3.org/2000/svg">
<rect width="320" height="64" rx="16" fill="#F5F5F5"/>
<rect x="1" y="1" width="318" height="62" rx="15" stroke="#BEBEBE" stroke-opacity="0.5" stroke-width="2"/>
<path d="M40.6328 25.625V26.8594H35.4297V25.625H40.6328ZM41.9297 25.625V37H40.4219V25.625H41.9297ZM34.9141 25.625H36.4141L36.1562 31.1953C36.1198 31.9974 36.0573 32.7135 35.9688 33.3438C35.8854 33.9688 35.7656 34.513 35.6094 34.9766C35.4531 35.4349 35.25 35.8151 35 36.1172C34.75 36.4141 34.4427 36.6354 34.0781 36.7812C33.7188 36.9271 33.2865 37 32.7812 37H32.375V35.7734L32.6875 35.75C32.9792 35.7292 33.2292 35.6641 33.4375 35.5547C33.651 35.4401 33.8307 35.2682 33.9766 35.0391C34.1276 34.8099 34.25 34.513 34.3438 34.1484C34.4375 33.7839 34.5104 33.3385 34.5625 32.8125C34.6198 32.2812 34.6641 31.6615 34.6953 30.9531L34.9141 25.625ZM44.0469 32.8672V32.6875C44.0469 32.0781 44.1354 31.513 44.3125 30.9922C44.4896 30.4661 44.7448 30.0104 45.0781 29.625C45.4115 29.2344 45.8151 28.9323 46.2891 28.7188C46.763 28.5 47.2943 28.3906 47.8828 28.3906C48.4766 28.3906 49.0104 28.5 49.4844 28.7188C49.9635 28.9323 50.3698 29.2344 50.7031 29.625C51.0417 30.0104 51.2995 30.4661 51.4766 30.9922C51.6536 31.513 51.7422 32.0781 51.7422 32.6875V32.8672C51.7422 33.4766 51.6536 34.0417 51.4766 34.5625C51.2995 35.0833 51.0417 35.5391 50.7031 35.9297C50.3698 36.3151 49.9661 36.6172 49.4922 36.8359C49.0234 37.0495 48.4922 37.1562 47.8984 37.1562C47.3047 37.1562 46.7708 37.0495 46.2969 36.8359C45.8229 36.6172 45.4167 36.3151 45.0781 35.9297C44.7448 35.5391 44.4896 35.0833 44.3125 34.5625C44.1354 34.0417 44.0469 33.4766 44.0469 32.8672ZM45.4922 32.6875V32.8672C45.4922 33.2891 45.5417 33.6875 45.6406 34.0625C45.7396 34.4323 45.888 34.7604 46.0859 35.0469C46.2891 35.3333 46.5417 35.5599 46.8438 35.7266C47.1458 35.888 47.4974 35.9688 47.8984 35.9688C48.2943 35.9688 48.6406 35.888 48.9375 35.7266C49.2396 35.5599 49.4896 35.3333 49.6875 35.0469C49.8854 34.7604 50.0339 34.4323 50.1328 34.0625C50.237 33.6875 50.2891 33.2891 50.2891 32.8672V32.6875C50.2891 32.2708 50.237 31.8776 50.1328 31.5078C50.0339 31.1328 49.8828 30.8021 49.6797 30.5156C49.4818 30.224 49.2318 29.9948 48.9297 29.8281C48.6328 29.6615 48.2839 29.5781 47.8828 29.5781C47.487 29.5781 47.138 29.6615 46.8359 29.8281C46.5391 29.9948 46.2891 30.224 46.0859 30.5156C45.888 30.8021 45.7396 31.1328 45.6406 31.5078C45.5417 31.8776 45.4922 32.2708 45.4922 32.6875ZM59.0156 28.5469V29.7422H55.1094V37H53.6641V28.5469H59.0156ZM61.8359 34.7109L65.7344 28.5469H67.1875V37H65.7344V30.8359L61.8359 37H60.3984V28.5469H61.8359V34.7109ZM75.2422 32.2109V33.3828H70.7734V32.2109H75.2422ZM71.0781 28.5469V37H69.6328V28.5469H71.0781ZM76.4141 28.5469V37H74.9609V28.5469H76.4141ZM78.6797 36.2344C78.6797 35.9896 78.7552 35.7839 78.9062 35.6172C79.0625 35.4453 79.2865 35.3594 79.5781 35.3594C79.8698 35.3594 80.0911 35.4453 80.2422 35.6172C80.3984 35.7839 80.4766 35.9896 80.4766 36.2344C80.4766 36.474 80.3984 36.6771 80.2422 36.8438C80.0911 37.0104 79.8698 37.0938 79.5781 37.0938C79.2865 37.0938 79.0625 37.0104 78.9062 36.8438C78.7552 36.6771 78.6797 36.474 78.6797 36.2344ZM78.6875 29.3359C78.6875 29.0911 78.763 28.8854 78.9141 28.7188C79.0703 28.5469 79.2943 28.4609 79.5859 28.4609C79.8776 28.4609 80.099 28.5469 80.25 28.7188C80.4062 28.8854 80.4844 29.0911 80.4844 29.3359C80.4844 29.5755 80.4062 29.7786 80.25 29.9453C80.099 30.112 79.8776 30.1953 79.5859 30.1953C79.2943 30.1953 79.0703 30.112 78.9141 29.9453C78.763 29.7786 78.6875 29.5755 78.6875 29.3359ZM93.3125 25.625H94.8125V33.3203C94.8125 34.1745 94.6224 34.8854 94.2422 35.4531C93.862 36.0208 93.3568 36.4479 92.7266 36.7344C92.1016 37.0156 91.4219 37.1562 90.6875 37.1562C89.9167 37.1562 89.2188 37.0156 88.5938 36.7344C87.974 36.4479 87.4818 36.0208 87.1172 35.4531C86.7578 34.8854 86.5781 34.1745 86.5781 33.3203V25.625H88.0703V33.3203C88.0703 33.9141 88.1797 34.4036 88.3984 34.7891C88.6172 35.1745 88.9219 35.4609 89.3125 35.6484C89.7083 35.8359 90.1667 35.9297 90.6875 35.9297C91.2135 35.9297 91.6719 35.8359 92.0625 35.6484C92.4583 35.4609 92.7656 35.1745 92.9844 34.7891C93.2031 34.4036 93.3125 33.9141 93.3125 33.3203V25.625ZM101.883 34.7578C101.883 34.5495 101.836 34.3568 101.742 34.1797C101.654 33.9974 101.469 33.8333 101.188 33.6875C100.911 33.5365 100.495 33.4062 99.9375 33.2969C99.4688 33.1979 99.0443 33.0807 98.6641 32.9453C98.2891 32.8099 97.9688 32.6458 97.7031 32.4531C97.4427 32.2604 97.2422 32.0339 97.1016 31.7734C96.9609 31.513 96.8906 31.2083 96.8906 30.8594C96.8906 30.526 96.9635 30.2109 97.1094 29.9141C97.2604 29.6172 97.4714 29.3542 97.7422 29.125C98.0182 28.8958 98.349 28.7161 98.7344 28.5859C99.1198 28.4557 99.5495 28.3906 100.023 28.3906C100.701 28.3906 101.279 28.5104 101.758 28.75C102.237 28.9896 102.604 29.3099 102.859 29.7109C103.115 30.1068 103.242 30.5469 103.242 31.0312H101.797C101.797 30.7969 101.727 30.5703 101.586 30.3516C101.451 30.1276 101.25 29.9427 100.984 29.7969C100.724 29.651 100.404 29.5781 100.023 29.5781C99.6224 29.5781 99.2969 29.6406 99.0469 29.7656C98.8021 29.8854 98.6224 30.0391 98.5078 30.2266C98.3984 30.4141 98.3438 30.612 98.3438 30.8203C98.3438 30.9766 98.3698 31.1172 98.4219 31.2422C98.4792 31.362 98.5781 31.474 98.7188 31.5781C98.8594 31.6771 99.0573 31.7708 99.3125 31.8594C99.5677 31.9479 99.8932 32.0365 100.289 32.125C100.982 32.2812 101.552 32.4688 102 32.6875C102.448 32.9062 102.781 33.1745 103 33.4922C103.219 33.8099 103.328 34.1953 103.328 34.6484C103.328 35.0182 103.25 35.3568 103.094 35.6641C102.943 35.9714 102.721 36.237 102.43 36.4609C102.143 36.6797 101.799 36.8516 101.398 36.9766C101.003 37.0964 100.557 37.1562 100.062 37.1562C99.3177 37.1562 98.6875 37.0234 98.1719 36.7578C97.6562 36.4922 97.2656 36.1484 97 35.7266C96.7344 35.3047 96.6016 34.8594 96.6016 34.3906H98.0547C98.0755 34.7865 98.1901 35.1016 98.3984 35.3359C98.6068 35.5651 98.862 35.7292 99.1641 35.8281C99.4661 35.9219 99.7656 35.9688 100.062 35.9688C100.458 35.9688 100.789 35.9167 101.055 35.8125C101.326 35.7083 101.531 35.5651 101.672 35.3828C101.812 35.2005 101.883 34.9922 101.883 34.7578ZM108.734 37.1562C108.146 37.1562 107.612 37.0573 107.133 36.8594C106.659 36.6562 106.25 36.3724 105.906 36.0078C105.568 35.6432 105.307 35.2109 105.125 34.7109C104.943 34.2109 104.852 33.6641 104.852 33.0703V32.7422C104.852 32.0547 104.953 31.4427 105.156 30.9062C105.359 30.3646 105.635 29.9062 105.984 29.5312C106.333 29.1562 106.729 28.8724 107.172 28.6797C107.615 28.487 108.073 28.3906 108.547 28.3906C109.151 28.3906 109.672 28.4948 110.109 28.7031C110.552 28.9115 110.914 29.2031 111.195 29.5781C111.477 29.9479 111.685 30.3854 111.82 30.8906C111.956 31.3906 112.023 31.9375 112.023 32.5312V33.1797H105.711V32H110.578V31.8906C110.557 31.5156 110.479 31.151 110.344 30.7969C110.214 30.4427 110.005 30.151 109.719 29.9219C109.432 29.6927 109.042 29.5781 108.547 29.5781C108.219 29.5781 107.917 29.6484 107.641 29.7891C107.365 29.9245 107.128 30.1276 106.93 30.3984C106.732 30.6693 106.578 31 106.469 31.3906C106.359 31.7812 106.305 32.2318 106.305 32.7422V33.0703C106.305 33.4714 106.359 33.849 106.469 34.2031C106.583 34.5521 106.747 34.8594 106.961 35.125C107.18 35.3906 107.443 35.599 107.75 35.75C108.062 35.901 108.417 35.9766 108.812 35.9766C109.323 35.9766 109.755 35.8724 110.109 35.6641C110.464 35.4557 110.773 35.1771 111.039 34.8281L111.914 35.5234C111.732 35.7995 111.5 36.0625 111.219 36.3125C110.938 36.5625 110.591 36.7656 110.18 36.9219C109.773 37.0781 109.292 37.1562 108.734 37.1562ZM115.156 29.875V37H113.711V28.5469H115.117L115.156 29.875ZM117.797 28.5L117.789 29.8438C117.669 29.8177 117.555 29.8021 117.445 29.7969C117.341 29.7865 117.221 29.7812 117.086 29.7812C116.753 29.7812 116.458 29.8333 116.203 29.9375C115.948 30.0417 115.732 30.1875 115.555 30.375C115.378 30.5625 115.237 30.7865 115.133 31.0469C115.034 31.3021 114.969 31.5833 114.938 31.8906L114.531 32.125C114.531 31.6146 114.581 31.1354 114.68 30.6875C114.784 30.2396 114.943 29.8438 115.156 29.5C115.37 29.151 115.641 28.8802 115.969 28.6875C116.302 28.4896 116.698 28.3906 117.156 28.3906C117.26 28.3906 117.38 28.4036 117.516 28.4297C117.651 28.4505 117.745 28.474 117.797 28.5Z" fill="#2E2E2E"/>
<path d="M120.57 25.625V39.1094H119.406V25.625H120.57Z" fill="#8DD554"/>
</svg>
